# xmcd
#
# Track frame offsets: 
#        150
#        20229
#        39021
#        52826
#        68724
#        92650
#        107804
#        130617
#        151565
#        172621
#        189992
#        207614
#
# Disc length: 3060 seconds
#
# Revision: 1
# Processed by: cddbd v1.5.2PL0 Copyright (c) Steve Scherf et al.
# Submitted via: ExactAudioCopy v0.99pb4
#
DISCID=8a0bf20c
DTITLE=Jay Stielstra Trio - Don't Let Me Down Easy
DYEAR=2009
DGENRE=Folklore
TTITLE0=Don't Let Me Down Easy
TTITLE1=Novermber Love
TTITLE2=Tittabawassee Jane
TTITLE3=Liam O'Reilly
TTITLE4=Manistee River Waltz
TTITLE5=There Was a Time
TTITLE6=The Lake
TTITLE7=Leave the Bottle
TTITLE8=I'll Remember
TTITLE9=Same Folks We Hated in High School
TTITLE10=LastNight You Came Alive Again
TTITLE11=It's A Wonder
EXTD=
EXTT0=
EXTT1=
EXTT2=
EXTT3=
EXTT4=
EXTT5=
EXTT6=
EXTT7=
EXTT8=
EXTT9=
EXTT10=
EXTT11=
PLAYORDER=
